<svg id="Layer_1" data-name="Layer 1" xmlns="http://www.w3.org/2000/svg" xmlns:xlink="http://www.w3.org/1999/xlink" viewBox="0 0 198.81 207.25"><defs><style>.cls-1,.cls-2,.cls-3,.cls-4{fill:none;}.cls-1{stroke:#2b547e;stroke-width:3px;}.cls-2,.cls-4,.cls-5,.cls-6{stroke:#000;}.cls-2,.cls-4{stroke-width:0.25px;}.cls-2{stroke-dasharray:4 2;}.cls-3{stroke:#300;}.cls-3,.cls-5,.cls-6{stroke-width:0.5px;}.cls-5{fill:url(#radial-gradient);}.cls-6{fill:url(#radial-gradient-2);}.cls-7{fill:#966;}</style><radialGradient id="radial-gradient" cx="105.98" cy="390.63" r="11.33" gradientTransform="translate(0 -282.17)" gradientUnits="userSpaceOnUse"><stop offset="0" stop-color="#fff"/><stop offset="0.18" stop-color="#fbfbfb"/><stop offset="0.34" stop-color="#f0f0f0"/><stop offset="0.5" stop-color="#ddd"/><stop offset="0.66" stop-color="#c3c3c3"/><stop offset="0.82" stop-color="#a1a1a1"/><stop offset="0.97" stop-color="#787878"/><stop offset="1" stop-color="#6e6e6e"/></radialGradient><radialGradient id="radial-gradient-2" cx="151.25" cy="458.05" r="11.33" xlink:href="#radial-gradient"/></defs><line class="cls-1" x1="105.98" y1="108.46" x2="151.44" y2="176.25"/><line class="cls-1" x1="36.27" y1="45.17" x2="106.31" y2="108.75"/><line class="cls-2" x1="106.14" y1="45.25" x2="106.14" y2="175.75"/><path class="cls-3" d="M36.12,71.37c6.46,0,15.14-2.22,19.82-8.25"/><path d="M167.87,174.32l1.45-6.92h1.18l-.25,1.14a5,5,0,0,1,1.18-1,2.42,2.42,0,0,1,1.13-.28,1.69,1.69,0,0,1,1.08.35,1.67,1.67,0,0,1,.57.95,3.8,3.8,0,0,1,1.11-1,2.47,2.47,0,0,1,1.23-.33,1.86,1.86,0,0,1,1.3.41,1.52,1.52,0,0,1,.43,1.16,6.06,6.06,0,0,1-.15,1.05l-.93,4.46H176l.95-4.57a4.49,4.49,0,0,0,.12-.8.7.7,0,0,0-.21-.54.9.9,0,0,0-.61-.2,2.13,2.13,0,0,0-1.07.32,2.36,2.36,0,0,0-.85.84,5.64,5.64,0,0,0-.54,1.6l-.7,3.35h-1.18l1-4.67a3.51,3.51,0,0,0,.1-.68.72.72,0,0,0-.76-.76,2.12,2.12,0,0,0-1.05.32,2.56,2.56,0,0,0-.9.89,5.44,5.44,0,0,0-.57,1.63l-.68,3.27Z"/><path d="M50.07,74.3,51,71.93h1.17L50.6,76.16a3.15,3.15,0,0,0,.2.76,1.65,1.65,0,0,0,.29.44,1.41,1.41,0,0,0,.28.23.45.45,0,0,0,.26.09A.58.58,0,0,0,52,77.5a.86.86,0,0,0,.24-.38s0-.2.1-.52h.24l0,.79a1.39,1.39,0,0,1-.12.54,1.23,1.23,0,0,1-.36.51.78.78,0,0,1-.47.2.92.92,0,0,1-.54-.3,5.25,5.25,0,0,1-.77-1.57c-.15.25-.32.53-.49.84a2.11,2.11,0,0,1-1,.78c-.27.09-.53.16-.79.22a3.15,3.15,0,0,1-.54.06,3,3,0,0,1-1.18-.29,2.17,2.17,0,0,1-1-.8,4.1,4.1,0,0,1-.44-1,4.29,4.29,0,0,1-.13-1.15c0-.2,0-.35,0-.47s0-.48.09-.74a2.7,2.7,0,0,1,.39-1.06,3.21,3.21,0,0,1,1-1,2.6,2.6,0,0,1,1.5-.42l.18,0h.12l.26,0a1.44,1.44,0,0,1,.61.31,2.79,2.79,0,0,1,.69.81A3.45,3.45,0,0,1,50.07,74.3Zm-.75,2.24.41-1.09c-.08-.51-.15-1-.23-1.39a2.52,2.52,0,0,0-.32-.83,3.86,3.86,0,0,0-.45-.56,1.56,1.56,0,0,0-.57-.3,1.46,1.46,0,0,0-.53-.1.71.71,0,0,0-.41.12,3.46,3.46,0,0,0-.39.39,2.19,2.19,0,0,0-.35.67,5.06,5.06,0,0,0-.19.9q-.06.57-.06.9a6.64,6.64,0,0,0,.05.9,1.06,1.06,0,0,1,0,.14s0,.11,0,.17l0,.16s0,.09,0,.14a2.89,2.89,0,0,0,.16.53,1.88,1.88,0,0,0,.45.6.92.92,0,0,0,.73.32,1,1,0,0,0,.4-.09,1.67,1.67,0,0,0,.41-.25,2.42,2.42,0,0,0,.44-.59A4.33,4.33,0,0,0,49.32,76.54Z"/><path d="M24.15,38.49a5.79,5.79,0,0,1,1.48-4.14,4.73,4.73,0,0,1,3.58-1.58,3.89,3.89,0,0,1,2.91,1.16,4.32,4.32,0,0,1,1.13,3.12,5.92,5.92,0,0,1-.57,2.59,5.36,5.36,0,0,1-1.07,1.54,4.75,4.75,0,0,1-1.38,1,4.62,4.62,0,0,1-2.07.47,4.09,4.09,0,0,1-2.09-.54,3.58,3.58,0,0,1-1.43-1.53A4.59,4.59,0,0,1,24.15,38.49Zm1.26.06a3.49,3.49,0,0,0,.35,1.55,2.57,2.57,0,0,0,1,1.1,2.91,2.91,0,0,0,1.45.4,3,3,0,0,0,1.4-.35,4.07,4.07,0,0,0,1.19-1,4.63,4.63,0,0,0,.83-1.54A5.65,5.65,0,0,0,32,37a3.17,3.17,0,0,0-.79-2.27,2.6,2.6,0,0,0-2-.85,3.46,3.46,0,0,0-2.64,1.28A5,5,0,0,0,25.41,38.55Z"/><line class="cls-4" x1="36.13" y1="6.11" x2="36.13" y2="207.25"/><path d="M36.12,7.46,38.83,9.1,38.89,9l-1.75-4.4L36.12,0c-.33,1.54-.67,3.07-1,4.61L33.36,9l0,.09Z"/><line class="cls-4" y1="45.25" x2="192.7" y2="45.25"/><path d="M191.35,45.25l-1.64-2.7.09-.06,4.41,1.75,4.6,1-4.6,1L189.8,48l-.09,0Z"/><path d="M120.75,100.12l1.45-6.93h1.18l-.24,1.14a4.65,4.65,0,0,1,1.17-1,2.34,2.34,0,0,1,1.13-.28,1.68,1.68,0,0,1,1.08.34,1.63,1.63,0,0,1,.57,1,3.8,3.8,0,0,1,1.11-1,2.46,2.46,0,0,1,1.23-.32,1.8,1.8,0,0,1,1.3.41,1.5,1.5,0,0,1,.43,1.15,6.14,6.14,0,0,1-.15,1.06l-.93,4.46H128.9l.95-4.58a4.64,4.64,0,0,0,.13-.8.71.71,0,0,0-.22-.54.86.86,0,0,0-.61-.19,2,2,0,0,0-1.07.32,2.34,2.34,0,0,0-.85.83,5.68,5.68,0,0,0-.53,1.6l-.71,3.36h-1.18l1-4.68a3.51,3.51,0,0,0,.1-.68.72.72,0,0,0-.21-.54.74.74,0,0,0-.55-.21,2,2,0,0,0-1,.32,2.48,2.48,0,0,0-.9.89,5.13,5.13,0,0,0-.56,1.62l-.69,3.27h-1.18Z"/><line class="cls-2" x1="106.44" y1="108.5" x2="36.19" y2="108.5"/><path class="cls-3" d="M106.06,139.87c5.42,0,12.7-1.91,16.63-7.12"/><path d="M117,144.33l.88-2.37h1.17l-1.53,4.23a3.62,3.62,0,0,0,.21.76,1.67,1.67,0,0,0,.28.44,2.4,2.4,0,0,0,.28.23.48.48,0,0,0,.27.09.58.58,0,0,0,.39-.18,1.08,1.08,0,0,0,.24-.38s0-.2.09-.52h.24l0,.79a1.42,1.42,0,0,1-.13.54,1.08,1.08,0,0,1-.36.51.75.75,0,0,1-.47.2.88.88,0,0,1-.53-.3,5.25,5.25,0,0,1-.77-1.57c-.15.25-.32.53-.49.84a2.13,2.13,0,0,1-1,.78c-.27.09-.53.16-.78.22a3.25,3.25,0,0,1-.55.06,3,3,0,0,1-1.18-.29,2.14,2.14,0,0,1-.94-.8,4.1,4.1,0,0,1-.44-1,4.29,4.29,0,0,1-.13-1.15c0-.2,0-.35,0-.47s0-.48.09-.74a2.7,2.7,0,0,1,.39-1.06,3.09,3.09,0,0,1,1-1,2.55,2.55,0,0,1,1.5-.42l.18,0H115l.26,0a1.5,1.5,0,0,1,.61.31,3.14,3.14,0,0,1,.69.81A3.51,3.51,0,0,1,117,144.33Zm-.75,2.24.4-1.09c-.07-.51-.15-1-.22-1.39a3.06,3.06,0,0,0-.32-.83,3.82,3.82,0,0,0-.46-.56,1.6,1.6,0,0,0-.56-.3,1.55,1.55,0,0,0-.54-.1.73.73,0,0,0-.41.12,3.46,3.46,0,0,0-.39.39,2.19,2.19,0,0,0-.34.67,4.31,4.31,0,0,0-.19.9,7.13,7.13,0,0,0-.07.9,5.12,5.12,0,0,0,.06.9,1.15,1.15,0,0,0,0,.14l0,.17a.78.78,0,0,0,0,.16s0,.09,0,.14a2.28,2.28,0,0,0,.16.53,1.69,1.69,0,0,0,.44.6.94.94,0,0,0,.73.32,1,1,0,0,0,.41-.09,1.88,1.88,0,0,0,.41-.25,2.71,2.71,0,0,0,.44-.59A6.69,6.69,0,0,0,116.26,146.57Z"/><circle class="cls-5" cx="105.98" cy="108.46" r="11.33"/><line class="cls-2" x1="150.88" y1="176" x2="36.06" y2="176"/><line class="cls-2" x1="151.38" y1="45.25" x2="151.38" y2="175.87"/><circle class="cls-6" cx="151.25" cy="175.87" r="11.33"/><path d="M55.73,81.74H55V77.26a4,4,0,0,1-.67.49,4.49,4.49,0,0,1-.74.36v-.68a4.26,4.26,0,0,0,1-.67,2.6,2.6,0,0,0,.63-.77h.45Z"/><path d="M81.82,77.83h-.71V73.35a3.42,3.42,0,0,1-.66.48,4.92,4.92,0,0,1-.74.36v-.68a4.16,4.16,0,0,0,1-.67,2.59,2.59,0,0,0,.62-.77h.46Z"/><path d="M182.74,177v.68H179a1.37,1.37,0,0,1,.09-.49,2.45,2.45,0,0,1,.46-.76,7.3,7.3,0,0,1,.92-.87,7.84,7.84,0,0,0,1.26-1.21,1.45,1.45,0,0,0,.33-.85.92.92,0,0,0-.3-.7,1.09,1.09,0,0,0-.78-.29,1.06,1.06,0,0,0-.81.31,1.14,1.14,0,0,0-.31.84l-.72-.07a1.74,1.74,0,0,1,.56-1.23A1.86,1.86,0,0,1,181,172a1.78,1.78,0,0,1,1.3.46,1.49,1.49,0,0,1,.48,1.13,1.63,1.63,0,0,1-.14.68,2.6,2.6,0,0,1-.47.7,9.77,9.77,0,0,1-1.08,1q-.63.54-.81.72a2.55,2.55,0,0,0-.3.39h2.81Z"/><path d="M124.24,151.15v.68h-3.79a1.33,1.33,0,0,1,.09-.49,2.45,2.45,0,0,1,.46-.76,7.3,7.3,0,0,1,.92-.87,7.8,7.8,0,0,0,1.26-1.22,1.4,1.4,0,0,0,.33-.84.94.94,0,0,0-.3-.71,1.08,1.08,0,0,0-.78-.28,1.09,1.09,0,0,0-.81.3,1.18,1.18,0,0,0-.31.85l-.72-.08a1.74,1.74,0,0,1,.56-1.23,1.9,1.9,0,0,1,1.3-.42,1.82,1.82,0,0,1,1.3.45,1.51,1.51,0,0,1,.48,1.14,1.61,1.61,0,0,1-.14.67,2.45,2.45,0,0,1-.47.7,10.69,10.69,0,0,1-1.08,1,10.49,10.49,0,0,0-.81.72,2.49,2.49,0,0,0-.3.38Z"/><path d="M145.87,149.4v.68h-3.79a1.33,1.33,0,0,1,.08-.49,2.5,2.5,0,0,1,.47-.76,6.66,6.66,0,0,1,.92-.87,7.8,7.8,0,0,0,1.26-1.22,1.4,1.4,0,0,0,.33-.84.94.94,0,0,0-.3-.71,1.08,1.08,0,0,0-.78-.28,1.09,1.09,0,0,0-.81.3,1.14,1.14,0,0,0-.31.85l-.73-.08a1.78,1.78,0,0,1,.56-1.23,1.93,1.93,0,0,1,1.3-.42,1.84,1.84,0,0,1,1.31.45,1.51,1.51,0,0,1,.48,1.14,1.79,1.79,0,0,1-.14.67,2.68,2.68,0,0,1-.47.7,13.5,13.5,0,0,1-1.08,1,9.45,9.45,0,0,0-.82.72,2.4,2.4,0,0,0-.29.38Z"/><path d="M78.19,72.87v.48c-.9,1.2-1.64,1.8-2.21,1.8a.8.8,0,0,1-.73-.5A3,3,0,0,1,75,73.32a5,5,0,0,1,.31-1.58,11.65,11.65,0,0,1,.84-1.86,12,12,0,0,1,1.09-1.64,4,4,0,0,1,1-1,.68.68,0,0,1,.31-.12.17.17,0,0,1,.18.12,1.31,1.31,0,0,1,0,.42,4.84,4.84,0,0,1-.74,2.22,13.38,13.38,0,0,1-2,2.7,2.57,2.57,0,0,0-.07.52,1.19,1.19,0,0,0,.18.68.58.58,0,0,0,.85.13,3.35,3.35,0,0,0,.4-.31Zm-1.94-1.18a7,7,0,0,0,.65-.75c.21-.29.41-.59.6-.91a8.92,8.92,0,0,0,.44-.87,1.83,1.83,0,0,0,.16-.58c0-.1,0-.15-.11-.15a.54.54,0,0,0-.15.08A4.25,4.25,0,0,0,77,69.78,7.25,7.25,0,0,0,76.25,71.69Z"/><path d="M191.42,56.49l3-3.51-1.73-3.41H194l.59,1.23c.21.46.41.9.58,1.32l2-2.55h1.44l-2.91,3.5,1.75,3.42h-1.31l-.69-1.41c-.15-.3-.31-.67-.5-1.11l-2.06,2.52Z"/><path d="M24.29,10.29l.07-1.11a2.53,2.53,0,0,0,.71.1,1,1,0,0,0,.58-.16,2.69,2.69,0,0,0,.63-.81l.37-.67L25.5.69h1.16l.52,3.5c.11.69.2,1.39.27,2.08L30.55.69h1.23L27.37,8.53a4.92,4.92,0,0,1-1.14,1.52,1.84,1.84,0,0,1-1.14.38A2.45,2.45,0,0,1,24.29,10.29Z"/><path d="M140.82,145.24v.48c-.91,1.21-1.65,1.81-2.22,1.81a.81.81,0,0,1-.73-.51,2.92,2.92,0,0,1-.26-1.32,4.92,4.92,0,0,1,.31-1.58,11.26,11.26,0,0,1,.84-1.86,11.51,11.51,0,0,1,1.09-1.65,4.17,4.17,0,0,1,1-1,.77.77,0,0,1,.31-.11.17.17,0,0,1,.18.12,1.28,1.28,0,0,1,.05.41,4.83,4.83,0,0,1-.74,2.23,13.07,13.07,0,0,1-2.05,2.69,3.58,3.58,0,0,0-.07.52,1.16,1.16,0,0,0,.18.68.56.56,0,0,0,.5.26.64.64,0,0,0,.35-.12,3.5,3.5,0,0,0,.4-.32Zm-1.95-1.17a7.16,7.16,0,0,0,.65-.76,9,9,0,0,0,.6-.91,7.87,7.87,0,0,0,.44-.86,1.64,1.64,0,0,0,.16-.58c0-.1,0-.15-.1-.15a.31.31,0,0,0-.15.07,4.2,4.2,0,0,0-.9,1.27A7.68,7.68,0,0,0,138.87,144.07Z"/><circle class="cls-7" cx="36.06" cy="45.25" r="3.21"/><path d="M134.38,103.7h-.7V99.22a3.52,3.52,0,0,1-.67.48,3.91,3.91,0,0,1-.74.37v-.68a4.26,4.26,0,0,0,1-.67,2.6,2.6,0,0,0,.63-.77h.45Z"/><path d="M102.83,42.49l3-3.51-1.73-3.41h1.31L106,36.8c.21.46.41.9.58,1.32l2-2.55H110l-2.91,3.5,1.75,3.42h-1.31l-.69-1.41c-.15-.3-.31-.67-.5-1.11l-2.06,2.52Z"/><path d="M147.33,42.49l3-3.51-1.73-3.41h1.31l.59,1.23c.21.46.41.9.58,1.32l2-2.55h1.44l-2.91,3.5,1.75,3.42h-1.31l-.69-1.41c-.15-.3-.31-.67-.5-1.11l-2.06,2.52Z"/><path d="M22.93,113.41l.08-1.1a3,3,0,0,0,.71.1,1,1,0,0,0,.58-.16,2.8,2.8,0,0,0,.62-.81l.38-.68-1.15-6.94h1.16l.52,3.5c.1.69.19,1.38.26,2.07l3.1-5.57h1.23L26,111.66a5.2,5.2,0,0,1-1.13,1.52,1.83,1.83,0,0,1-1.14.37A2.23,2.23,0,0,1,22.93,113.41Z"/><path d="M22.93,181.66l.08-1.1a3,3,0,0,0,.71.1,1,1,0,0,0,.58-.16,2.8,2.8,0,0,0,.62-.81l.38-.68-1.15-6.94h1.16l.52,3.5c.1.69.19,1.38.26,2.07l3.1-5.57h1.23L26,179.91a5.2,5.2,0,0,1-1.13,1.52,1.83,1.83,0,0,1-1.14.37A2.23,2.23,0,0,1,22.93,181.66Z"/><path d="M112.19,44h-.7V39.47a3.52,3.52,0,0,1-.67.48,3.91,3.91,0,0,1-.74.37v-.68a4.26,4.26,0,0,0,1-.67,2.6,2.6,0,0,0,.63-.77h.45Z"/><path d="M31.94,113.45h-.7V109a3.52,3.52,0,0,1-.67.48,3.91,3.91,0,0,1-.74.37v-.68a4.26,4.26,0,0,0,1-.67,2.6,2.6,0,0,0,.63-.77h.45Z"/><path d="M158,43.27V44h-3.78a1.18,1.18,0,0,1,.08-.49,2.45,2.45,0,0,1,.46-.76,7.3,7.3,0,0,1,.92-.87,7.84,7.84,0,0,0,1.26-1.21,1.45,1.45,0,0,0,.33-.85.92.92,0,0,0-.3-.7,1.09,1.09,0,0,0-.78-.29,1.06,1.06,0,0,0-.81.31,1.14,1.14,0,0,0-.31.84l-.72-.07a1.78,1.78,0,0,1,.56-1.24,1.9,1.9,0,0,1,1.3-.42,1.78,1.78,0,0,1,1.3.46,1.49,1.49,0,0,1,.48,1.13,1.63,1.63,0,0,1-.14.68,2.79,2.79,0,0,1-.46.7,11.18,11.18,0,0,1-1.09,1q-.63.54-.81.72a2.55,2.55,0,0,0-.3.39H158Z"/><path d="M33,180.52v.68H29.21a1.18,1.18,0,0,1,.08-.49,2.45,2.45,0,0,1,.46-.76,7.3,7.3,0,0,1,.92-.87,7.84,7.84,0,0,0,1.26-1.21,1.45,1.45,0,0,0,.33-.85.92.92,0,0,0-.3-.7,1.09,1.09,0,0,0-.78-.29,1.06,1.06,0,0,0-.81.31,1.14,1.14,0,0,0-.31.84l-.72-.07a1.74,1.74,0,0,1,.56-1.23,1.86,1.86,0,0,1,1.3-.43,1.78,1.78,0,0,1,1.3.46A1.49,1.49,0,0,1,33,177a1.63,1.63,0,0,1-.14.68,2.6,2.6,0,0,1-.47.7,9.77,9.77,0,0,1-1.08,1q-.63.54-.81.72a2.55,2.55,0,0,0-.3.39H33Z"/></svg>